<svg xmlns="http://www.w3.org/2000/svg" xmlns:xlink="http://www.w3.org/1999/xlink" width="570.235" height="421.247" viewBox="0 0 570.235 421.247"><defs><style>.a,.b{fill:#f2545b;}.a,.h,.t{opacity:0.1;}.c,.d{fill:none;stroke:#535461;stroke-miterlimit:10;}.d{stroke-width:2px;}.e{opacity:0.25;}.f{fill:url(#a);}.g{fill:#5b5877;}.i{fill:#2e2e2e;}.j,.m{opacity:0.05;}.k{fill:#fdc2cc;}.l{fill:#865a61;}.n,.t{fill:#fff;}.o{fill:#d39999;}.p{fill:#f2f5fb;}.q{fill:#dde0ed;}.r{fill:#abb1d1;}.s{fill:#d7666f;}</style><linearGradient id="a" x1="0.5" y1="1" x2="0.5" gradientUnits="objectBoundingBox"><stop offset="0" stop-color="gray" stop-opacity="0.251"/><stop offset="0.54" stop-color="gray" stop-opacity="0.122"/><stop offset="1" stop-color="gray" stop-opacity="0.102"/></linearGradient></defs><g transform="translate(-865.269 -325)"><g transform="translate(865.269 325)"><path class="a" d="M63.41,474.66c9.021,38.558,28.118,71.889,58.3,88.045,62.722,33.575,204.177,16.26,309.75-3.638A241.747,241.747,0,0,0,568.929,480.5Z" transform="translate(-57.131 -251.22)"/><path class="b" d="M841.849,691.6s-35.154,21.2,29.636,53.831c0,0,14.27-26.5-1.507-48.1a21.275,21.275,0,0,0-27.6-6.049Z" transform="translate(-426.478 -353.968)"/><path class="c" d="M851.43,693.55s30.077,23.01,29.23,54.278" transform="translate(-435.654 -356.363)"/><path class="b" d="M60.849,703.6s-35.155,21.2,29.636,53.831c0,0,14.27-26.5-1.507-48.1a21.275,21.275,0,0,0-27.6-6.049Z" transform="translate(-51.328 -359.732)"/><path class="c" d="M70.43,705.55s30.078,23.01,29.231,54.278" transform="translate(-60.503 -362.127)"/><path class="d" d="M907,693.449s-11.011-37.415,2.079-64.91a59.058,59.058,0,0,0,4.776-37.051,99.31,99.31,0,0,0-5.3-17.388" transform="translate(-460.264 -298.985)"/><path class="b" d="M914.319,533.463c0,4.583-8.314,17.871-8.314,17.871s-8.315-13.287-8.315-17.871a8.314,8.314,0,0,1,16.593,0Z" transform="translate(-457.875 -275.735)"/><path class="b" d="M940.666,578.052c-2.489,3.845-16.676,10.492-16.676,10.492s.26-15.662,2.749-19.508a8.315,8.315,0,0,1,13.927,9.021Z" transform="translate(-470.508 -294.945)"/><path class="b" d="M936.73,658.642c-4.09,2.079-19.69.639-19.69.639s8.127-13.391,12.222-15.454a8.314,8.314,0,0,1,7.472,14.815Z" transform="translate(-467.17 -332.16)"/><path class="b" d="M921.99,722.341c-3.684,2.723-19.3,3.954-19.3,3.954s5.747-14.55,9.432-17.3A8.315,8.315,0,0,1,922,722.336Z" transform="translate(-460.276 -363.142)"/><path class="b" d="M888.485,598.551c3.284,3.191,18.6,6.5,18.6,6.5s-3.752-15.21-7.036-18.4a8.314,8.314,0,0,0-11.562,11.9Z" transform="translate(-452.427 -304.063)"/><path class="b" d="M869.064,670.47c4.09,2.079,19.69.639,19.69.639s-8.128-13.391-12.222-15.454a8.314,8.314,0,1,0-7.473,14.815Z" transform="translate(-441.689 -337.606)"/><path class="b" d="M863.834,745.1c3.684,2.723,19.3,3.955,19.3,3.955s-5.748-14.55-9.432-17.3a8.314,8.314,0,1,0-9.873,13.339Z" transform="translate(-439.785 -373.773)"/><path class="e" d="M914.319,533.463c0,4.583-8.314,17.871-8.314,17.871s-8.315-13.287-8.315-17.871a8.314,8.314,0,0,1,16.593,0Z" transform="translate(-457.875 -275.735)"/><path class="e" d="M940.666,578.052c-2.489,3.845-16.676,10.492-16.676,10.492s.26-15.662,2.749-19.508a8.315,8.315,0,0,1,13.927,9.021Z" transform="translate(-470.508 -294.945)"/><path class="e" d="M936.73,658.642c-4.09,2.079-19.69.639-19.69.639s8.127-13.391,12.222-15.454a8.314,8.314,0,0,1,7.472,14.815Z" transform="translate(-467.17 -332.16)"/><path class="e" d="M921.99,722.341c-3.684,2.723-19.3,3.954-19.3,3.954s5.747-14.55,9.432-17.3A8.315,8.315,0,0,1,922,722.336Z" transform="translate(-460.276 -363.142)"/><path class="e" d="M888.485,598.551c3.284,3.191,18.6,6.5,18.6,6.5s-3.752-15.21-7.036-18.4a8.314,8.314,0,0,0-11.562,11.9Z" transform="translate(-452.427 -304.063)"/><path class="e" d="M869.064,670.47c4.09,2.079,19.69.639,19.69.639s-8.128-13.391-12.222-15.454a8.314,8.314,0,1,0-7.473,14.815Z" transform="translate(-441.689 -337.606)"/><path class="e" d="M863.834,745.1c3.684,2.723,19.3,3.955,19.3,3.955s-5.748-14.55-9.432-17.3a8.314,8.314,0,1,0-9.873,13.339Z" transform="translate(-439.785 -373.773)"/><path class="d" d="M956,694.819s-11.011-37.415,2.079-64.91a59.059,59.059,0,0,0,4.776-37.051,99.324,99.324,0,0,0-5.243-17.388" transform="translate(-483.801 -299.643)"/><path class="b" d="M963.359,534.823c0,4.583-8.314,17.871-8.314,17.871s-8.315-13.288-8.315-17.871a8.314,8.314,0,0,1,16.593,0Z" transform="translate(-481.431 -276.389)"/><path class="b" d="M989.691,579.4C987.2,583.248,973,589.874,973,589.874s.26-15.662,2.749-19.508a8.314,8.314,0,0,1,13.927,9.021Z" transform="translate(-494.05 -295.584)"/><path class="b" d="M985.8,660.02c-4.09,2.079-19.69.639-19.69.639s8.128-13.392,12.222-15.455A8.314,8.314,0,0,1,985.8,660.02Z" transform="translate(-490.74 -332.825)"/><path class="b" d="M971.03,723.712c-3.684,2.723-19.3,3.955-19.3,3.955s5.747-14.55,9.432-17.3a8.314,8.314,0,0,1,9.873,13.34Z" transform="translate(-483.833 -363.8)"/><path class="b" d="M937.525,599.921c3.284,3.191,18.6,6.5,18.6,6.5s-3.752-15.21-7.036-18.4a8.314,8.314,0,0,0-11.562,11.9Z" transform="translate(-475.983 -304.721)"/><path class="b" d="M919,672.292c4.09,2.079,19.69.639,19.69.639s-8.143-13.391-12.217-15.454A8.314,8.314,0,0,0,919,672.292Z" transform="translate(-466.143 -338.717)"/><path class="b" d="M912.864,746.467c3.684,2.723,19.3,3.955,19.3,3.955s-5.747-14.55-9.432-17.3a8.314,8.314,0,1,0-9.873,13.339Z" transform="translate(-463.337 -374.431)"/><path class="a" d="M52.849,319.79a255.18,255.18,0,0,0,2.25,67.274l508.569,18.578A239.037,239.037,0,0,0,599,351.754Zm201.106,47.99h-9.993a5.007,5.007,0,1,1,0,10.014H186.036a5.007,5.007,0,1,1,0-10.014H196.05a5.007,5.007,0,1,1,0-10.014h-7.156a5.007,5.007,0,1,1,0-10.014H246.82a5.007,5.007,0,1,1,0,10.014h7.135a5.007,5.007,0,1,1,0,10.014Z" transform="translate(-51.46 -176.828)"/><path class="a" d="M622.633,182,67.388,195.511c-6.756,17.362-11.23,36.994-13.3,57.339H612.9a237.216,237.216,0,0,0,8.081-36.552A174.352,174.352,0,0,0,622.633,182ZM166.808,226.243h-9.993a5.007,5.007,0,0,1,0,10.014H98.889a5.007,5.007,0,1,1,0-10.014H108.9a5.007,5.007,0,0,1,0-10.014h-7.156a5.007,5.007,0,0,1,0-10.014h57.926a5.007,5.007,0,1,1,0,10.014h7.135a5.007,5.007,0,1,1,0,10.014Z" transform="translate(-52.654 -110.641)"/><ellipse class="b" cx="276.975" cy="17.149" rx="276.975" ry="17.149" transform="translate(9.012 386.949)"/><path class="f" d="M591.519,218.512s-32.12-30.228-36.76-34.749c-1.616-1.559-3.144-3.118-4.448-4.433A17.445,17.445,0,0,0,541.1,174.5c-12.035-2.281-24.346-9.681-24.346-9.681h0c-.067-.088-.135-.166-.2-.26a14.64,14.64,0,0,1-2.26-4.833c-.068-.255-.135-.52-.192-.79q.291-.374.566-.764a3.719,3.719,0,0,0,.608-.275,7.311,7.311,0,0,0,2.957-4.053c.52-1.4.935-2.941,2.172-3.851a4.539,4.539,0,0,0,1.18-.941,2.77,2.77,0,0,0,.275-1.606c0-3.549-.566-6.272.26-9.733,1.32-5.54,2.531-12.472-1.652-16.582a14.607,14.607,0,0,0-7.878-3.923c-2.687-.426-6.662,3.232-9.385,3.118-6.937-.265-12.784-6.522-19.378-4.5a13.625,13.625,0,0,0-7.119,5.1c-3.253,4.635-2.941,10.632-2.474,16.161a2.011,2.011,0,0,0,.359,1.18c.244.286.634.437.873.722a1.752,1.752,0,0,1,.27,1.294,8.489,8.489,0,0,1-.644,2.6,1.039,1.039,0,0,0-.1.941.982.982,0,0,0,.52.353,4.723,4.723,0,0,0,.857.2c-.047.457-.088.915-.1,1.377v.785a20.339,20.339,0,0,0,9.26,16.982c.057.374.119.759.177,1.159.177,1.232.338,2.6.457,4.084,0,.27.042.52.062.816l-.14-.286-22.345,10.954a11.074,11.074,0,0,0-4.505,2.209l-.442.218v.13q-.275.229-.561.488L438.84,161.4l-45.21,39.244,24.86,26.767,27.937-2.328c-1.377,9.458-2.318,16.707-2.318,16.707S439,263.686,463.747,259.5c-.161,13.807-6.075,36.849-6.075,36.849a12.173,12.173,0,0,0,2.406,2.375l-.14.941-1.559,10.585s-9.281,25.712-10.7,48.645-3.211,35.788-3.211,35.788l-3.211,45.87-4.516,20.973a106.04,106.04,0,0,1-25.671,20.526,3.6,3.6,0,0,0-1.455,4.926c1.829,3.149,7.457,6.418,24.5,1.18,27.126-8.314,24.626-7.992,24.626-7.992s.4-11.131-.754-17.731c-.036-.2-.073-.39-.109-.582,6.5-7.322,3.357-19.227,3.357-19.227s12.846-25.016,6.755-41.349c0,0-1.429-13.9,6.07-20.5.1-.094.213-.2.322-.307l.1-.1.244-.26.109-.12.286-.333.062-.073c.114-.14.234-.291.353-.447l.093-.125.3-.338.114-.166.281-.411.094-.135.379-.577.073-.114.317-.52.119-.2.291-.488.109-.187.4-.7h0l.4-.717.114-.213.307-.566.119-.229.369-.7.047-.088.426-.831.1-.2.333-.66.125-.249.348-.707.088-.177.437-.909.073-.151.364-.774.125-.265.338-.722.109-.234.447-.972h0l.431-.961.12-.265.338-.764.114-.265.462-.993v-.042l.452-1.039.1-.223.353-.821.12-.275.369-.878.073-.166.447-1.039.073-.171.369-.883.12-.286.338-.826.1-.239.431-1.039.036-.088.39-.961.12-.3.317-.79.114-.286.374-.946.036-.1.405-1.039.12-.3.291-.743.125-.327.307-.79.088-.234.379-.982.1-.27.275-.717.14-.364.244-.634.13-.343.343-.909.1-.265.249-.665.14-.369.208-.556.14-.379.234-.629.151-.405.234-.634.151-.405.161-.437.151-.416.13-.359.348-.946.057-.161.161-.447.109-.3.166-.452.078-.213c1.491-4.11,2.406-6.756,2.406-6.756s6.755,23.629,5.716,30.925,6.423,34.4,6.423,34.4-4.282,27.105-1.782,33.7-3.57,31.273-3.57,31.273.463.255,1.247.644l-.047.67c-.39,5.425-1.237,15.849-2.271,19.882-1.429,5.56-.712,11.469,10.7,10.772s11.775-7.644,11.775-7.644-3.768-12.15-4.23-19.315a4.975,4.975,0,0,0-.031-.686h0l.322-.12.094-.036c.13-.057.255-.114.374-.177h0c.114-.062.218-.125.327-.192l.094-.062q.135-.093.265-.2l.062-.052q.156-.13.3-.27l.068-.068q.109-.12.213-.244l.073-.093c.083-.109.166-.224.244-.348,3.923-6.236,4.282-19.461,4.282-19.461s7.852-44.477,5-50.406-1.429-19.8-1.429-19.8-3.211-20.849.359-30.925c2.671-7.545,4.344-33.6,4.266-46.067v-1.029c2.661-3.3,4.677-9.1,3.243-19.269-.083-.577-.146-1.159-.208-1.751,4.053-3.03,8.055-6.589,8.055-6.589l1.382-1.424.442-.457c.385.161.79.307,1.211.436,1.559.707,2.671,1.1,2.671,1.1s20.344-16.681,35.69-24.673S591.519,218.512,591.519,218.512ZM567.251,233.1s-21.415,13.573-25.328,20.506a5.2,5.2,0,0,0-.52,1.237l-.52.218h0l-.655.249c3.279-18.708,12.056-37.15,12.056-37.15s6.756,5.908,11.432,8.314,3.534,6.631,3.534,6.631Z" transform="translate(-215.751 -78.663)"/><path class="g" d="M453.484,799.877c-16.442,5.2-21.872,1.954-23.634-1.169a3.637,3.637,0,0,1,1.4-4.879A102.917,102.917,0,0,0,456.2,773.281c1.829-2.079,2.791-3.352,2.791-3.352s12.737-2.411,15.834,0c.774.6,1.315,2.287,1.684,4.469,1.112,6.537.728,17.564.728,17.564S479.643,791.615,453.484,799.877Z" transform="translate(-232.941 -392.536)"/><path class="g" d="M624.772,794.815s-.343,6.885-11.36,7.571-11.7-5.165-10.325-10.668c1-3.991,1.814-14.317,2.188-19.695.14-2.042.218-3.367.218-3.367s17.211-1.72,15.491,3.118a10.728,10.728,0,0,0-.291,3.929C621.14,782.785,624.772,794.815,624.772,794.815Z" transform="translate(-316.113 -392.296)"/><path class="h" d="M500.945,774.4l-.307.353c-6.542,7.228-20.308,0-20.308,0l.307-1.465c1.829-2.079,2.791-3.352,2.791-3.352s12.737-2.411,15.834,0C500.056,770.537,500.6,772.221,500.945,774.4Z" transform="translate(-257.397 -392.541)"/><path class="h" d="M623.479,771.763a10.73,10.73,0,0,0-.291,3.929c-4.5,1.559-12.472-2.13-15.418-3.638.14-2.042.218-3.367.218-3.367S625.21,766.946,623.479,771.763Z" transform="translate(-318.613 -392.307)"/><path class="i" d="M573.3,549.573c2.754,5.851-4.817,49.887-4.817,49.887s-.343,13.08-4.131,19.274-18.931-2.411-18.931-2.411,5.851-24.424,3.44-30.982,1.72-33.377,1.72-33.377-7.228-26.85-6.194-34.079-5.508-30.66-5.508-30.66-15.148,45.1-22.376,51.633-5.851,20.308-5.851,20.308c5.851,16.177-6.543,40.964-6.543,40.964s3.118,12.046-3.44,19.274-20.308,0-20.308,0l4.49-21.3,3.118-45.438s1.72-12.737,3.118-35.456,10.325-48.193,10.325-48.193l1.5-10.487,1.258-8.793s69.878-2.411,71.6-2.754c.431-.088.65,2.541.67,6.683.078,12.352-1.559,38.158-4.116,45.636-3.44,9.983-.343,30.66-.343,30.66S570.546,543.722,573.3,549.573Z" transform="translate(-257.412 -237.926)"/><g class="j" transform="translate(233.123 209.045)"><path d="M544.5,524.5s-15.148,45.1-22.376,51.633-5.851,20.308-5.851,20.308c5.851,16.177-6.543,40.964-6.543,40.964s3.118,12.046-3.44,19.274a9.873,9.873,0,0,1-6.35,3.118c3.638.379,7.478-.172,10.133-3.118,6.542-7.228,3.44-19.274,3.44-19.274s12.394-24.782,6.542-40.964c0,0-1.377-13.771,5.851-20.308,5.555-5.025,15.777-32.8,20.22-45.4C545.212,527.052,544.5,524.5,544.5,524.5Z" transform="translate(-499.94 -484.205)"/><path d="M643.144,529.937s-3.118-20.651.343-30.66c2.6-7.478,4.188-33.284,4.116-45.636,0-4.157-.239-6.756-.67-6.683-.213.042-1.5.12-3.57.218.291.707.436,3.076.457,6.47C643.9,466,642.26,491.8,639.7,499.283c-3.44,9.982-.343,30.66-.343,30.66s-1.377,13.771,1.377,19.622-4.817,49.887-4.817,49.887-.343,13.08-4.131,19.274a4.594,4.594,0,0,1-3.16,2.079c2.946.437,5.628.073,6.943-2.079,3.788-6.194,4.131-19.274,4.131-19.274s7.571-44.061,4.817-49.887S643.144,529.937,643.144,529.937Z" transform="translate(-561.756 -446.957)"/></g><path class="k" d="M605.321,198.705l-2.411,23.748s-38.21,8.263-34.079-5.165a50.508,50.508,0,0,0,1.626-18.6c-.119-1.465-.27-2.827-.442-4.048a57.992,57.992,0,0,0-1.185-6.267s29.62-22.376,28.228-7.228a24.661,24.661,0,0,0,.546,8.559,14.678,14.678,0,0,0,2.182,4.786A10.733,10.733,0,0,0,605.321,198.705Z" transform="translate(-299.759 -107.704)"/><path class="h" d="M597.9,189.72c-.275.374-.566.743-.863,1.1a20.313,20.313,0,0,1-26.731,3.845,57.978,57.978,0,0,0-1.185-6.267s29.62-22.376,28.228-7.228A24.666,24.666,0,0,0,597.9,189.72Z" transform="translate(-300.047 -107.714)"/><path class="k" d="M594.506,158.268a20.308,20.308,0,0,1-40.616,0q0-.39,0-.779a20.306,20.306,0,1,1,40.6.78Z" transform="translate(-292.732 -89.299)"/><path class="h" d="M597.176,453.672A11.069,11.069,0,0,1,589.963,458l-15.818,5.534h-.036l-4.8,1.679-2.011-4.947-2.463-6.07v11.017s-30.223,2.079-41.188-6.7l1.258-8.793s69.878-2.411,71.6-2.754C596.937,446.9,597.155,449.525,597.176,453.672Z" transform="translate(-278.206 -237.918)"/><path class="h" d="M605.321,215.909l-2.411,23.748s-38.21,8.262-34.079-5.165a50.508,50.508,0,0,0,1.626-18.6c.66,1.382,5.519,11.162,11.8,12.861h0a6.812,6.812,0,0,0,2.406.229,7.987,7.987,0,0,0,3.705-1.434c5.654-3.757,10.393-13.646,11.432-15.849A10.675,10.675,0,0,0,605.321,215.909Z" transform="translate(-299.759 -124.908)"/><path class="b" d="M645.768,287.742c-14.8,7.92-34.422,24.424-34.422,24.424S596.89,307,600.678,300.121,625.1,279.813,625.1,279.813s1.039-4.131-3.44-6.542-11.017-8.263-11.017-8.263-15.491,33.388-12.394,55.764-10.326,23.384-10.326,23.384l-15.818,5.534h-.036l-4.8,1.678-2.011-4.947-2.463-6.07v11.017s-35.113,2.411-43.37-8.948c0,0,7.571-30.291,5.508-41.993s-4.474-70.564-4.474-70.564l26.331-13.251s5.15,11.24,11.905,13.074h0a6.812,6.812,0,0,0,2.406.229,7.987,7.987,0,0,0,3.705-1.434c6.376-4.235,11.614-16.291,11.614-16.291s11.874,7.327,23.483,9.588a16.682,16.682,0,0,1,8.886,4.781c1.258,1.315,2.733,2.827,4.292,4.391,4.474,4.474,35.456,34.422,35.456,34.422S660.552,279.823,645.768,287.742Z" transform="translate(-276.179 -125.143)"/><path class="k" d="M672.987,387.624l-4.521,4.786-1.33,1.413s-12.046,11.017-15.148,10.668-8.262-21.342-2.078-19.965c3.762.837,8.164-.483,11.032-1.652h0a29.179,29.179,0,0,0,3.076-1.445Z" transform="translate(-337.461 -206.437)"/><path class="h" d="M594.525,158.268a20.215,20.215,0,0,1-4.791,13.1,2.931,2.931,0,0,1-2.728-1.3c-.572-1-.333-2.26-.712-3.341a17.872,17.872,0,0,0-1.788-2.785c-1.382-2.422-.8-6.09-3.331-7.389a6.286,6.286,0,0,0-3.871-.177c-2.551.421-5.119,1.258-7.634,1.606-2.869.405-5.451-1.46-8.283-1.5-2.525-.042-5.061,1.439-7.457,1.013a20.306,20.306,0,1,1,40.6.78Z" transform="translate(-292.751 -89.299)"/><path class="l" d="M575.2,145.635a6.286,6.286,0,0,1,3.871.182c2.531,1.294,1.949,4.963,3.331,7.384a18.786,18.786,0,0,1,1.793,2.785c.364,1.039.14,2.338.712,3.341.826,1.45,3.066,1.663,4.536.8a7.214,7.214,0,0,0,2.848-4.017c.489-1.382.9-2.91,2.079-3.814a4.407,4.407,0,0,0,1.138-.93,2.8,2.8,0,0,0,.27-1.59c0-3.513-.546-6.236.25-9.64,1.273-5.488,2.437-12.357-1.6-16.426a13.953,13.953,0,0,0-7.6-3.887c-2.6-.426-6.423,3.2-9.052,3.118-6.688-.265-12.331-6.459-18.708-4.459a13.158,13.158,0,0,0-6.87,5.056c-3.118,4.594-2.837,10.528-2.385,16.01a2.027,2.027,0,0,0,.348,1.169c.234.281.613.431.842.717a1.772,1.772,0,0,1,.26,1.278,8.6,8.6,0,0,1-.618,2.6,1.07,1.07,0,0,0-.093.935.945.945,0,0,0,.52.353c2.6.935,5.4-.868,8.185-.821s5.42,1.907,8.288,1.5C570.077,146.892,572.644,146.056,575.2,145.635Z" transform="translate(-290.642 -79.94)"/><path class="m" d="M607.294,364.786h-.036l-4.973,1.85-1.84-5.119-7.795-21.732,1.221-95.039h0a6.813,6.813,0,0,0,2.406.229,7.986,7.986,0,0,0,3.705-1.434h0l-1.476,93.538Z" transform="translate(-311.35 -140.202)"/><circle class="n" cx="1.034" cy="1.034" r="1.034" transform="translate(285.255 107.178)"/><circle class="n" cx="1.034" cy="1.034" r="1.034" transform="translate(283.186 142.286)"/><circle class="n" cx="1.034" cy="1.034" r="1.034" transform="translate(281.466 178.776)"/><circle class="n" cx="1.034" cy="1.034" r="1.034" transform="translate(283.535 197.016)"/><path class="m" d="M595.463,260.51H573.43V238.482l11.017-3.1,11.017,3.1Z" transform="translate(-275.439 -113.059)"/><circle class="n" cx="1.034" cy="1.034" r="1.034" transform="translate(284.221 123.355)"/><circle class="n" cx="1.034" cy="1.034" r="1.034" transform="translate(308.66 124.389)"/><circle class="n" cx="1.034" cy="1.034" r="1.034" transform="translate(282.158 161.217)"/><path class="o" d="M512.821,241.66s-9.64,1.377-12.737,18.931-6.194,41.993-6.194,41.993-5.165,22.719,20.641,17.2l1.377-7.92s-2.6,9.12-1.892-9.12.863-30.14.863-30.14Z" transform="translate(-263.708 -139.299)"/><path class="b" d="M512.821,241.66s-9.64,1.377-12.737,18.931-6.194,41.993-6.194,41.993-5.165,22.719,20.641,17.2l1.377-7.92s-3.96,8.777-3.269-9.468,2.24-29.776,2.24-29.776Z" transform="translate(-263.708 -139.299)"/><path class="h" d="M685.726,387.624l-4.521,4.786c-6.428-2.6-7.675-9.411-7.675-9.411l.166-.125h0a29.2,29.2,0,0,0,3.076-1.445Z" transform="translate(-350.2 -206.437)"/><path class="b" d="M679.969,376.46l-5.139,3.809s1.7,9.271,11.334,10.3l4.131-7.228Z" transform="translate(-350.825 -204.049)"/><path class="p" d="M349.25,199.835l43.589-38.875,19.949,23.213,34.235-1.767L457.4,203.868l-32.593,42.57L409.54,223.246l-36.313,3.108Z" transform="translate(-167.755 -77.312)"/><path class="q" d="M457.194,206.648l-11.469,14.9-12.238,15.9-5.654,7.353-13.08-20.35-13.719,1.206L378.7,227.616l-16.639-18.4-5.721-6.324,23.213-20.7,17.44-15.548,8.985,10.455,9.614,11.188,9.6-.494,22.324-1.154,8.715,18.022Z" transform="translate(-171.16 -80.04)"/><path class="r" d="M385.092,205.353l-23.031,18.235-5.721-6.324,23.213-20.7Z" transform="translate(-171.16 -94.412)"/><path class="r" d="M449.352,214.078l-1.814-11.427L435.42,188.428l8.543-1.668,9.614,11.188,9.6-.494,3.523,13.61-17.112,4.505Z" transform="translate(-209.146 -89.704)"/><path class="r" d="M534.314,241.79l-11.469,14.9-5.955-8.98,16.463-7.909Z" transform="translate(-248.28 -115.182)"/><path class="r" d="M472.5,272.364l-5.654,7.353-13.08-20.35-13.719,1.206-2.489-17.206,12.82-4.038,1.538,11.755,8.673,1.346Z" transform="translate(-210.174 -114.956)"/><path class="s" d="M503.091,287.84a.343.343,0,0,1-.333-.12,19.924,19.924,0,0,0-5.753-4.817.344.344,0,0,1,.333-.6,20.613,20.613,0,0,1,5.95,4.983.343.343,0,0,1-.2.556Z" transform="translate(-265.322 -158.8)"/><path class="s" d="M500.619,287.4a.343.343,0,0,1-.359-.52l4.459-7.363a.344.344,0,1,1,.587.359l-4.459,7.363A.343.343,0,0,1,500.619,287.4Z" transform="translate(-266.945 -157.404)"/><path class="t" d="M399.39,245.657l36.8-38.953,31.938-1.554-32.608,37.665Z" transform="translate(-191.839 -98.538)"/><path class="k" d="M512.16,346.523s8.606-21.114,12.737-18.921,16.177,15.356,7.92,21.114a106.785,106.785,0,0,1-14.114,8.5l-6.543-.821Z" transform="translate(-272.687 -180.504)"/><path class="o" d="M503.22,363.624s7.893-6.194,14.27,12.565l-6.012.863-6.885-4.131Z" transform="translate(-268.393 -197.413)"/><path class="b" d="M503.22,363.624s7.893-6.194,14.27,12.565l-6.012.863-6.885-4.131Z" transform="translate(-268.393 -197.413)"/><path class="a" d="M630.531,86.632H572.6a5.007,5.007,0,0,1,0-10.014h10.014a5.007,5.007,0,0,1,0-10.014h-7.156a5.007,5.007,0,0,1,0-10.014h30.244a80,80,0,0,0-23.582-6.5C499.687,39.5,470.254,46.5,459.871,53.727A115.448,115.448,0,0,1,417.5,72.3c-50.874,10.481-146,23.1-232.192-4.069-42.851-13.511-74.7,9.312-93.787,47.434H640.591c-.717-11.079-2.863-21.306-6.8-30.265A4.978,4.978,0,0,1,630.531,86.632Z" transform="translate(-70.634 -44.68)"/></g></g></svg>